<svg version="1.0" xmlns="http://www.w3.org/2000/svg" width="805.000000pt" height="805.000000pt" viewBox="0 0 805.000000 805.000000" preserveAspectRatio="xMidYMid meet"><g transform="translate(0.000000,805.000000) scale(0.100000,-0.100000)" fill="#000" stroke="none"><path d="M3655 7990 c-204 -17 -421 -43 -431 -51 -6 -5 -31 -13 -55 -18 -72 -15 -181 -47 -223 -65 -21 -9 -66 -23 -100 -32 -122 -31 -267 -120 -352 -214 -138 -153 -221 -310 -241 -457 -5 -41 -4 -46 11 -40 10 4 20 7 22 7 2 0 4 6 4 13 0 19 99 122 140 146 75 44 152 17 204 -72 14 -23 119 -281 235 -574 116 -293 222 -555 236 -582 14 -28 25 -58 25 -68 0 -10 12 -36 25 -58 14 -22 25 -49 25 -59 0 -11 72 -202 159 -425 164 -417 216 -555 296 -771 25 -69 52 -138 59 -155 19 -42 52 -158 67 -235 19 -97 17 -338 -4 -435 -18 -87 -34 -134 -95 -270 -23 -49 -43 -101 -45 -115 -3 -14 -21 -68 -41 -120 -21 -52 -57 -149 -82 -215 -25 -66 -49 -124 -53 -130 -5 -5 -11 -19 -14 -30 -3 -11 -26 -74 -51 -139 -25 -66 -44 -121 -42 -123 10 -10 -35 -130 -76 -208 -48 -88 -61 -117 -89 -192 -17 -47 -46 -119 -65 -160 -19 -41 -34 -78 -34 -83 0 -5 -34 -96 -76 -202 -77 -197 -94 -240 -207 -528 -36 -91 -76 -194 -90 -230 -56 -142 -76 -180 -109 -200 -18 -11 -42 -20 -53 -20 -30 0 -115 46 -154 83 -37 34 -114 148 -131 192 -10 28 -30 26 -30 -3 0 -30 42 -246 51 -265 5 -9 19 -43 31 -75 11 -31 26 -64 33 -72 6 -8 20 -35 29 -59 10 -25 31 -62 47 -82 16 -20 29 -41 29 -46 0 -5 35 -41 77 -81 58 -53 106 -86 188 -127 149 -76 277 -130 355 -150 36 -9 79 -20 95 -25 66 -20 214 -49 280 -55 39 -3 108 -13 154 -21 47 -9 141 -16 210 -17 106 -2 126 0 126 13 0 11 -17 17 -67 22 -70 7 -276 50 -324 69 -154 58 -384 169 -384 184 0 6 -15 16 -32 23 -44 16 -92 63 -136 131 -32 50 -36 65 -40 138 -3 62 -1 88 10 105 8 13 18 41 21 63 7 45 41 154 63 200 15 33 86 218 140 363 19 52 43 113 54 138 11 24 50 120 86 212 36 92 80 205 99 252 19 47 59 150 90 230 30 80 62 160 70 178 8 18 15 42 15 54 0 12 6 29 14 37 17 19 27 44 231 561 184 469 182 465 214 465 27 0 39 -25 72 -154 11 -41 26 -82 34 -91 8 -9 26 -52 41 -95 15 -44 30 -82 35 -85 4 -3 30 -71 58 -150 56 -162 61 -177 126 -345 25 -66 70 -190 99 -275 30 -85 86 -236 126 -335 40 -99 85 -216 101 -260 41 -120 118 -327 129 -350 6 -11 26 -65 46 -120 105 -291 149 -555 109 -651 -40 -96 -167 -219 -318 -308 -66 -39 -258 -109 -445 -162 -53 -15 -62 -21 -60 -39 3 -17 11 -20 58 -21 208 -5 743 108 955 202 17 7 56 23 87 34 81 30 194 107 258 177 93 100 114 126 125 144 5 9 24 41 41 71 18 29 37 78 44 108 6 30 17 71 22 92 10 34 9 56 -11 213 l-7 60 -18 -39 c-47 -105 -130 -206 -186 -230 -73 -30 -156 29 -239 169 -25 44 -52 94 -60 110 -14 33 -151 406 -183 500 -11 33 -24 65 -28 70 -4 6 -15 35 -25 65 -10 30 -28 75 -41 100 -26 52 -79 210 -88 258 -3 18 -31 97 -62 175 -31 78 -83 219 -115 312 -33 94 -63 177 -66 185 -31 81 -98 264 -200 550 -25 69 -52 143 -60 165 -8 22 -30 99 -49 171 -44 174 -57 372 -30 485 33 138 53 194 430 1194 531 1406 594 1567 661 1684 102 177 157 180 318 18 64 -65 79 -91 113 -187 l23 -65 0 110 c0 151 -14 207 -97 370 -62 122 -80 147 -134 197 -86 77 -218 178 -233 178 -2 0 -24 13 -48 30 -77 52 -247 117 -377 145 -41 9 -82 19 -90 22 -25 10 -42 13 -110 23 -36 5 -108 16 -160 24 -86 13 -254 22 -353 18 -44 -2 -41 -17 6 -27 17 -4 37 -11 42 -15 11 -8 192 -70 206 -70 5 0 32 -11 61 -25 28 -14 59 -25 68 -25 8 0 25 -6 36 -14 20 -14 90 -53 149 -84 38 -19 96 -61 112 -80 7 -8 33 -29 59 -46 26 -17 52 -40 58 -51 6 -11 14 -22 17 -25 19 -16 42 -81 45 -132 4 -48 -2 -73 -31 -150 -20 -50 -45 -106 -55 -124 -11 -17 -31 -62 -43 -100 -29 -86 -113 -309 -132 -349 -22 -48 -105 -275 -105 -287 0 -5 -11 -31 -24 -57 -12 -26 -29 -65 -36 -86 -7 -22 -23 -62 -35 -90 -35 -76 -57 -134 -133 -340 -72 -193 -77 -208 -108 -305 -10 -30 -25 -66 -35 -80 -9 -14 -32 -63 -49 -110 -18 -47 -71 -182 -117 -300 -47 -118 -96 -244 -110 -280 -38 -102 -42 -110 -52 -110 -5 0 -12 8 -16 18 -3 9 -72 188 -152 397 -79 209 -168 441 -197 515 -29 74 -69 178 -89 230 -20 52 -104 275 -187 495 -84 220 -165 424 -182 454 -16 29 -38 85 -48 125 -10 39 -44 136 -74 216 -83 214 -118 420 -82 488 20 38 106 116 184 166 71 45 173 96 192 96 7 0 33 10 59 23 25 13 73 31 106 40 33 9 87 26 120 38 33 11 79 25 103 31 43 12 52 29 16 34 -10 2 -32 5 -49 7 -16 2 -66 1 -110 -3z"/><path d="M2345 7639 c-22 -12 -71 -39 -108 -60 -38 -22 -71 -39 -73 -39 -6 0 -160 -106 -216 -149 -55 -42 -144 -107 -243 -175 -38 -27 -72 -52 -75 -55 -3 -4 -37 -30 -75 -58 -39 -28 -89 -74 -110 -101 -22 -28 -52 -57 -66 -66 -14 -8 -45 -37 -69 -63 -162 -180 -220 -243 -257 -278 -24 -22 -83 -96 -132 -165 -49 -69 -101 -141 -116 -160 -106 -139 -177 -258 -302 -505 -37 -72 -122 -282 -138 -340 -8 -27 -28 -90 -45 -140 -40 -116 -106 -366 -115 -430 -3 -27 -15 -111 -25 -185 -43 -308 -52 -442 -47 -673 7 -273 20 -452 40 -537 8 -36 18 -99 22 -140 13 -133 41 -267 104 -490 43 -151 50 -173 87 -255 12 -27 33 -81 46 -120 12 -38 26 -71 31 -73 4 -2 7 -9 7 -16 0 -6 11 -28 25 -49 14 -20 40 -63 57 -94 30 -56 65 -105 117 -165 53 -61 101 -21 170 142 6 14 15 32 20 40 6 8 35 69 65 135 31 66 63 134 73 150 9 17 37 70 62 119 25 48 54 103 64 121 10 19 22 55 26 82 5 26 27 93 51 148 23 55 46 124 51 154 6 30 12 58 15 63 3 4 -1 8 -9 8 -7 0 -38 -33 -68 -74 -87 -117 -136 -173 -259 -293 -108 -106 -164 -144 -190 -128 -5 3 -10 2 -10 -4 0 -6 -15 -1 -34 10 -62 36 -107 127 -154 309 -39 152 -52 225 -52 289 0 28 -6 82 -14 119 -20 92 -32 289 -28 456 7 283 66 452 220 631 91 105 141 145 202 164 25 7 63 21 85 31 22 10 50 21 63 25 12 3 22 10 22 15 0 5 15 12 33 15 17 4 37 11 42 15 6 5 39 16 75 25 36 9 69 20 75 23 13 8 100 40 140 51 32 9 137 45 195 67 129 48 230 67 230 43 0 -5 5 -7 10 -4 7 4 9 -584 8 -1817 l-3 -1823 -24 -49 -24 -48 -51 5 c-57 6 -113 31 -190 84 -55 38 -75 56 -175 155 -60 60 -74 78 -137 173 -15 22 -30 42 -34 45 -13 10 -140 225 -140 237 0 7 -13 38 -29 70 -16 32 -33 70 -36 86 -4 15 -11 27 -16 27 -5 0 -9 8 -9 17 0 13 -3 14 -12 5 -13 -13 0 -76 43 -217 10 -33 32 -109 49 -170 31 -106 78 -235 90 -245 4 -3 19 -36 34 -75 24 -62 66 -129 109 -175 8 -8 20 -26 27 -39 16 -30 19 -34 105 -127 88 -96 202 -192 330 -279 154 -106 215 -148 249 -173 93 -67 209 -132 271 -152 22 -7 49 -19 60 -26 31 -22 65 -18 65 7 0 21 -55 109 -69 109 -4 0 -13 16 -21 35 -8 19 -17 35 -21 35 -3 0 -12 15 -20 33 -7 17 -23 49 -36 69 -13 21 -28 60 -34 88 -6 27 -15 52 -20 56 -5 3 -9 29 -9 57 0 29 -5 81 -10 117 -12 83 -12 43 -10 1295 1 583 -1 1827 -5 2765 -9 1900 -8 1935 51 2140 38 133 73 192 160 277 77 75 72 106 -11 62z m-521 -1520 c-1 -671 -3 -803 -15 -814 -8 -8 -76 -30 -153 -50 -76 -20 -162 -45 -190 -56 -28 -12 -85 -34 -126 -51 -41 -16 -100 -38 -130 -48 -30 -10 -86 -30 -125 -45 -38 -15 -77 -28 -85 -30 -8 -2 -60 -19 -115 -39 -146 -50 -222 -50 -260 2 -25 35 -24 139 4 249 12 45 21 91 21 102 0 11 16 60 36 108 33 79 53 120 117 233 11 19 37 68 59 109 67 128 100 185 113 201 8 8 28 36 47 62 18 26 54 76 80 110 27 35 68 94 93 131 25 37 70 93 100 124 30 30 55 59 55 64 0 5 7 9 15 9 8 0 15 6 15 14 0 8 12 23 28 34 15 11 49 48 76 81 27 34 64 70 81 81 17 10 58 51 91 89 32 39 64 71 69 71 6 0 26 13 45 30 19 16 40 29 45 30 7 0 10 -273 9 -801z"/><path d="M5707 7586 c-3 -8 11 -36 31 -63 42 -55 61 -86 100 -163 15 -30 35 -67 45 -81 37 -55 39 -157 31 -1194 -4 -550 -8 -1029 -9 -1065 -1 -36 -5 -412 -8 -837 -6 -707 -17 -1341 -34 -1908 -3 -121 -5 -236 -3 -255 11 -116 -11 -1220 -25 -1275 -23 -93 -86 -202 -141 -245 -24 -19 -44 -38 -44 -43 0 -21 35 -16 80 12 28 17 53 31 56 31 7 0 150 66 179 83 11 6 49 27 85 47 125 69 297 193 405 291 95 87 245 240 245 251 0 10 11 25 58 77 90 99 209 278 264 396 12 28 26 52 29 55 3 3 9 22 13 43 9 51 -12 49 -55 -4 -60 -72 -300 -303 -334 -321 -19 -10 -36 -27 -40 -38 -9 -27 -55 -72 -122 -117 -93 -64 -106 -71 -163 -84 -30 -7 -58 -17 -61 -22 -4 -5 -20 -6 -36 -3 -55 12 -58 29 -58 355 0 658 17 2150 25 2216 5 39 10 145 10 238 0 92 4 167 9 167 43 0 261 -154 337 -239 23 -25 62 -68 88 -96 25 -27 46 -53 46 -58 0 -4 20 -32 45 -63 25 -30 45 -59 45 -65 0 -6 24 -42 53 -82 45 -62 89 -138 131 -224 6 -13 16 -23 22 -23 6 0 17 -15 25 -32 7 -18 16 -35 19 -38 12 -10 92 -184 116 -251 13 -38 24 -81 24 -96 0 -16 4 -44 10 -63 5 -19 17 -89 26 -155 22 -163 13 -534 -15 -622 -10 -32 -22 -78 -25 -103 -4 -24 -11 -49 -15 -55 -5 -5 -11 -25 -14 -43 -4 -18 -23 -71 -43 -117 -20 -46 -33 -89 -29 -94 11 -18 33 -12 41 11 3 12 33 48 65 79 33 32 59 64 59 71 0 8 12 30 26 49 45 60 117 172 147 229 17 30 59 100 95 155 36 55 73 120 82 145 10 25 24 63 33 85 51 135 91 293 78 310 -5 5 -15 32 -24 58 -15 46 -36 74 -103 141 -17 17 -42 47 -54 66 -13 19 -47 62 -75 95 -28 33 -64 80 -79 105 -29 46 -113 161 -238 326 -37 50 -68 96 -68 103 0 6 -8 24 -19 39 -110 160 -154 278 -133 350 7 23 26 55 43 71 l31 31 161 0 c89 0 181 -5 204 -10 24 -6 159 -11 301 -13 208 -2 262 1 275 12 24 19 22 154 -3 301 -11 63 -27 160 -35 215 -28 187 -128 570 -156 600 -5 5 -9 19 -9 31 0 38 -108 352 -156 453 -25 53 -50 107 -55 119 -5 13 -29 55 -54 93 -25 39 -66 109 -91 156 -55 102 -135 215 -241 340 -43 50 -103 122 -133 159 -30 37 -69 83 -86 103 -17 20 -39 51 -48 69 -9 17 -20 32 -25 32 -10 0 -121 100 -170 154 -20 21 -63 59 -96 84 -33 25 -69 54 -80 64 -85 75 -231 190 -285 222 -36 22 -83 54 -105 72 -51 41 -332 200 -366 208 -18 4 -29 1 -32 -8z m663 -785 c1 -11 106 -121 116 -121 14 0 247 -238 250 -254 1 -7 29 -49 63 -92 109 -140 163 -212 180 -243 9 -16 28 -47 43 -69 15 -22 48 -80 74 -129 26 -48 65 -119 86 -158 21 -38 41 -79 45 -90 4 -11 24 -54 45 -95 62 -120 139 -365 182 -575 9 -44 26 -118 37 -165 11 -47 25 -136 32 -198 12 -105 12 -114 -4 -123 -18 -9 -250 -14 -574 -11 -104 1 -280 11 -390 22 -298 29 -278 25 -300 67 -20 36 -20 61 -18 1166 2 1063 3 1130 20 1142 15 11 24 7 65 -28 26 -22 48 -43 48 -46z"/></g></svg>